<svg width="18" height="18" viewBox="0 0 18 18" fill="none" xmlns="http://www.w3.org/2000/svg">
<path d="M9 12L8.46967 12.5303L9 13.0607L9.53033 12.5303L9 12ZM9.75 2.25C9.75 1.83579 9.41421 1.5 9 1.5C8.58579 1.5 8.25 1.83579 8.25 2.25L9.75 2.25ZM3.96967 8.03033L8.46967 12.5303L9.53033 11.4697L5.03033 6.96967L3.96967 8.03033ZM9.53033 12.5303L14.0303 8.03033L12.9697 6.96967L8.46967 11.4697L9.53033 12.5303ZM9.75 12L9.75 2.25L8.25 2.25L8.25 12L9.75 12Z" fill="white"/>
<path d="M4.5 15.75H13.5" stroke="white" stroke-width="1.5" stroke-linecap="round"/>
</svg>
