<svg width="61" height="76" viewBox="0 0 61 76" fill="none" xmlns="http://www.w3.org/2000/svg">
<path d="M39.9152 14.2462C44.466 16.7399 47.8807 20.8915 49.4495 25.838C50.6702 29.8053 51.5634 33.866 52.1203 37.9793C53.0776 44.7685 56.3118 60.9619 56.3118 60.9619L54.0804 67.0803C53.9395 67.3986 53.7204 67.8014 53.2723 67.7193C44.4702 65.2292 35.828 62.205 27.3939 58.6635C23.4158 57.0165 19.5751 55.0558 15.908 52.7997C12.6549 50.9011 9.98063 48.1518 8.17276 44.8474C5.46531 39.6961 4.8086 33.7108 6.33469 28.0951C7.59234 23.9723 9.08552 19.9252 10.8069 15.9735C10.8069 15.9735 31.95 9.58946 39.9152 14.2462ZM37.2077 27.3801C35.884 25.6378 34.0734 24.327 32.0049 23.6136C29.9363 22.9002 27.7027 22.8161 25.5863 23.3719C23.47 23.9278 21.5659 25.0986 20.115 26.7365C18.664 28.3743 17.7312 30.4056 17.4345 32.5736C17.1378 34.7415 17.4906 36.9487 18.4482 38.9161C19.4058 40.8836 20.9252 42.523 22.8144 43.627C24.7036 44.731 26.8777 45.2501 29.0619 45.1187C31.2461 44.9872 33.3422 44.2111 35.0854 42.8885C36.2434 42.0098 37.217 40.9116 37.9504 39.6566C38.6838 38.4015 39.1628 37.0142 39.3599 35.574C39.5569 34.1338 39.4683 32.6689 39.0991 31.2629C38.7298 29.857 38.0871 28.5376 37.2077 27.3801Z" fill="url(#paint0_linear_21_292)"/>
<path d="M42.1815 7.5479C46.7346 10.0389 50.1502 14.1915 51.7158 19.1397C52.9365 23.107 53.8298 27.1677 54.3866 31.281C55.6681 40.9316 56.3041 50.657 56.2901 60.3924C56.2936 61.2461 56.2844 61.2595 55.482 61.0313C46.6799 58.5413 38.0377 55.5171 29.6035 51.9756C25.6302 50.3418 21.7924 48.3962 18.126 46.1571C14.8728 44.2585 12.1986 41.5092 10.3907 38.2048C8.04048 33.799 7.19075 28.747 7.97032 23.8148C8.74989 18.8826 11.1162 14.339 14.7107 10.8727C18.3051 7.40652 22.9316 5.20668 27.8889 4.60669C32.8462 4.0067 37.864 5.03928 42.1815 7.5479ZM39.474 20.6818C38.6115 19.4806 37.517 18.4645 36.2552 17.6935C34.9933 16.9225 33.5897 16.4122 32.1273 16.1929C30.6649 15.9736 29.1733 16.0496 27.7408 16.4165C26.3083 16.7834 24.9638 17.4337 23.7869 18.329C22.61 19.2243 21.6244 20.3465 20.8886 21.6291C20.1527 22.9118 19.6814 24.3289 19.5025 25.7969C19.3236 27.2648 19.4408 28.7536 19.8471 30.1755C20.2534 31.5973 20.9406 32.9233 21.868 34.0751C23.6754 36.3195 26.2871 37.7704 29.1476 38.119C32.0081 38.4675 34.8918 37.6864 37.1853 35.9417C39.4788 34.197 41.0011 31.6264 41.4285 28.7765C41.856 25.9267 41.1547 23.0226 39.474 20.6818Z" fill="#FFF650"/>
<defs>
<linearGradient id="paint0_linear_21_292" x1="52.846" y1="34.0947" x2="10.5027" y2="51.0913" gradientUnits="userSpaceOnUse">
<stop offset="0.4" stop-color="#EB8E00"/>
<stop offset="0.56" stop-color="#ED9200"/>
<stop offset="0.74" stop-color="#F2A000"/>
<stop offset="0.92" stop-color="#FBB600"/>
<stop offset="1" stop-color="#FFC100"/>
</linearGradient>
</defs>
</svg>
