<svg width="70" height="70" viewBox="0 0 70 70" fill="none" xmlns="http://www.w3.org/2000/svg">
<path fill-rule="evenodd" clip-rule="evenodd" d="M60.1978 31.7729L63.309 28.6423L53.8975 19.2308L38.2271 34.9012L53.8975 50.574L63.309 41.1625L53.8975 31.7729L50.7693 34.9207L57.0477 41.182L53.8975 44.3322L44.4689 34.9207L53.8975 25.4921L60.1978 31.7729Z" fill="#3FBA95"/>
<path fill-rule="evenodd" clip-rule="evenodd" d="M63.309 34.9206L66.4592 38.0317L69.5703 34.9011L66.4592 31.7728L63.309 34.9206Z" fill="#3FBA95"/>
<path fill-rule="evenodd" clip-rule="evenodd" d="M31.9488 9.82165L28.8181 6.69098L19.4261 16.1L35.116 31.7729L50.7693 16.1L41.3773 6.69098L31.9488 16.1195L35.0965 19.2307L41.3773 12.9694L44.508 16.1195L35.0965 25.5311L25.6874 16.1195L31.9488 9.82165Z" fill="#4FC6EB"/>
<path fill-rule="evenodd" clip-rule="evenodd" d="M35.0965 6.69102L38.2271 3.54085L35.0965 0.429688L31.9487 3.54085L35.0965 6.69102Z" fill="#4FC6EB"/>
<path fill-rule="evenodd" clip-rule="evenodd" d="M9.9975 38.0318L6.88634 41.1625L16.2954 50.574L31.9682 34.9207L16.2954 19.2308L6.88634 28.6423L16.2954 38.0318L19.4261 34.9207L13.1452 28.6423L16.2954 25.4921L25.7264 34.9207L16.2954 44.3322L9.9975 38.0318Z" fill="#EA3C71"/>
<path fill-rule="evenodd" clip-rule="evenodd" d="M6.88633 34.9206L3.73616 31.7728L0.625 34.9011L3.73616 38.0317L6.88633 34.9206Z" fill="#EA3C71"/>
<path fill-rule="evenodd" clip-rule="evenodd" d="M35.0965 63.1332L31.9682 66.2639L35.0965 69.375L38.2271 66.2639L35.0965 63.1332Z" fill="#EFBB45"/>
<path fill-rule="evenodd" clip-rule="evenodd" d="M38.2272 60.0026L41.3578 63.1137L50.7693 53.7022L35.0965 38.0318L19.4261 53.7022L28.8376 63.1137L38.2272 53.7217L35.0965 50.5935L28.8181 56.8719L25.6679 53.7217L35.0965 44.2932L44.508 53.7217L38.2272 60.0026Z" fill="#EFBB45"/>
</svg>
